<svg xmlns="http://www.w3.org/2000/svg" viewBox="0 0 500 500"><g id="freepik--background-complete--inject-40"><rect y="382.4" width="500" height="0.25" style="fill:#ebebeb"></rect><rect x="416.78" y="398.49" width="33.12" height="0.25" style="fill:#ebebeb"></rect><rect x="322.53" y="401.21" width="8.69" height="0.25" style="fill:#ebebeb"></rect><rect x="396.59" y="389.21" width="19.19" height="0.25" style="fill:#ebebeb"></rect><rect x="52.46" y="390.89" width="43.19" height="0.25" style="fill:#ebebeb"></rect><rect x="104.56" y="390.89" width="6.33" height="0.25" style="fill:#ebebeb"></rect><rect x="131.47" y="395.11" width="93.68" height="0.25" style="fill:#ebebeb"></rect><path d="M237,337.8H43.91a5.71,5.71,0,0,1-5.7-5.71V60.66A5.71,5.71,0,0,1,43.91,55H237a5.71,5.71,0,0,1,5.71,5.71V332.09A5.71,5.71,0,0,1,237,337.8ZM43.91,55.2a5.46,5.46,0,0,0-5.45,5.46V332.09a5.46,5.46,0,0,0,5.45,5.46H237a5.47,5.47,0,0,0,5.46-5.46V60.66A5.47,5.47,0,0,0,237,55.2Z" style="fill:#ebebeb"></path><path d="M453.31,337.8H260.21a5.72,5.72,0,0,1-5.71-5.71V60.66A5.72,5.72,0,0,1,260.21,55h193.1A5.71,5.71,0,0,1,459,60.66V332.09A5.71,5.71,0,0,1,453.31,337.8ZM260.21,55.2a5.47,5.47,0,0,0-5.46,5.46V332.09a5.47,5.47,0,0,0,5.46,5.46h193.1a5.47,5.47,0,0,0,5.46-5.46V60.66a5.47,5.47,0,0,0-5.46-5.46Z" style="fill:#ebebeb"></path><rect x="65.2" y="128.22" width="124.78" height="128.93" style="fill:#ebebeb"></rect><rect x="69.56" y="128.22" width="124.78" height="128.93" style="fill:#f0f0f0"></rect><rect x="72.7" y="131.27" width="118.33" height="122.88" style="fill:#e0e0e0"></rect><rect x="72.7" y="131.27" width="115.37" height="122.88" style="fill:#f5f5f5"></rect><rect x="129.24" y="131.27" width="2.34" height="122.88" style="fill:#ebebeb"></rect><polygon points="115.75 131.27 82.87 254.15 79.71 254.15 112.59 131.27 115.75 131.27" style="fill:#fff"></polygon><rect x="130.58" y="129.38" width="2.01" height="127.13" style="fill:#f0f0f0"></rect><polygon points="103.81 131.27 72.7 247.56 72.7 183.64 86.71 131.27 103.81 131.27" style="fill:#fff"></polygon><polygon points="188.07 142.42 188.07 154.22 161.33 254.15 158.17 254.15 188.07 142.42" style="fill:#fff"></polygon><polygon points="188.07 166.24 188.07 230.16 181.66 254.15 164.55 254.15 188.07 166.24" style="fill:#fff"></polygon><path d="M169.29,297H182v-.85c0-1.65-1.86-3-4.07-2.88l-5,.2c-2,.09-3.64,1.35-3.64,2.88Z" style="fill:#f0f0f0"></path><path d="M194.37,297.41h16.76L213.8,274a1.65,1.65,0,0,0-1.64-1.57H200.93a1.64,1.64,0,0,0-1.64,1.57Z" style="fill:#e6e6e6"></path><path d="M168.79,238H173l4.71,44.2h-4.19A1.45,1.45,0,0,1,172.1,281l-4.43-41.69A1.1,1.1,0,0,1,168.79,238Z" style="fill:#e6e6e6"></path><path d="M175.26,282.23H238a1.11,1.11,0,0,0,1.12-1.26l-4.43-41.69a1.44,1.44,0,0,0-1.39-1.25H170.56a1.1,1.1,0,0,0-1.12,1.25L173.87,281A1.45,1.45,0,0,0,175.26,282.23Z" style="fill:#ebebeb"></path><path d="M176.43,278.14h59.14a1,1,0,0,0,1-1.09l-3.87-36.37a1.25,1.25,0,0,0-1.21-1.1H172.33a1,1,0,0,0-1,1.1l3.87,36.37A1.25,1.25,0,0,0,176.43,278.14Z" style="fill:#fafafa"></path><path d="M193.74,295.59h20.62a.91.91,0,0,1,.91.91h0a.91.91,0,0,1-.91.91H193.74a.91.91,0,0,1-.91-.91h0A.91.91,0,0,1,193.74,295.59Z" style="fill:#e6e6e6"></path><rect x="142.97" y="296.88" width="51.05" height="7.7" transform="translate(336.99 601.47) rotate(180)" style="fill:#e6e6e6"></rect><path d="M285.23,382.9h1.27a.29.29,0,0,0,.29-.29l2-78h-5.89l2,78A.31.31,0,0,0,285.23,382.9Z" style="fill:#e6e6e6"></path><polygon points="330.67 382.9 333.61 382.9 325.3 304.58 319.41 304.58 330.67 382.9" style="fill:#f0f0f0"></polygon><polygon points="140.98 382.9 140.98 382.9 152.26 304.58 146.38 304.58 138.06 382.9 140.98 382.9" style="fill:#e6e6e6"></polygon><rect x="179.46" y="296.88" width="149.24" height="7.7" transform="translate(508.16 601.47) rotate(180)" style="fill:#f5f5f5"></rect><polygon points="184.12 382.9 187.5 382.9 187.5 382.9 188.75 304.58 182.87 304.58 184.12 382.9" style="fill:#f0f0f0"></polygon><path d="M231.79,295.5h1.57a.31.31,0,0,0,.3-.3v-1.65a.3.3,0,0,0-.3-.3h-1.13a.29.29,0,0,0-.28.22l-.44,1.65A.3.3,0,0,0,231.79,295.5Z" style="fill:#f5f5f5"></path><path d="M229.63,295.5h1.57a.3.3,0,0,0,.29-.3v-1.65a.29.29,0,0,0-.29-.3h-1.13a.29.29,0,0,0-.28.22l-.45,1.65A.31.31,0,0,0,229.63,295.5Z" style="fill:#f5f5f5"></path><path d="M227.47,295.5H229a.3.3,0,0,0,.29-.3v-1.65a.29.29,0,0,0-.29-.3h-1.13a.31.31,0,0,0-.29.22l-.44,1.65A.31.31,0,0,0,227.47,295.5Z" style="fill:#f5f5f5"></path><path d="M225.31,295.5h1.56a.3.3,0,0,0,.3-.3v-1.65a.29.29,0,0,0-.3-.3h-1.12a.31.31,0,0,0-.29.22l-.44,1.65A.3.3,0,0,0,225.31,295.5Z" style="fill:#f5f5f5"></path><path d="M223.15,295.5h1.56a.3.3,0,0,0,.3-.3v-1.65a.29.29,0,0,0-.3-.3h-1.12a.3.3,0,0,0-.29.22l-.44,1.65A.3.3,0,0,0,223.15,295.5Z" style="fill:#f5f5f5"></path><path d="M221,295.5h1.56a.3.3,0,0,0,.3-.3v-1.65a.29.29,0,0,0-.3-.3h-1.12a.3.3,0,0,0-.29.22l-.44,1.65A.3.3,0,0,0,221,295.5Z" style="fill:#f5f5f5"></path><path d="M218.83,295.5h1.56a.3.3,0,0,0,.3-.3v-1.65a.29.29,0,0,0-.3-.3h-1.12a.29.29,0,0,0-.29.22l-.44,1.65A.3.3,0,0,0,218.83,295.5Z" style="fill:#f5f5f5"></path><path d="M216.67,295.5h1.56a.31.31,0,0,0,.3-.3v-1.65a.3.3,0,0,0-.3-.3h-1.12a.29.29,0,0,0-.29.22l-.44,1.65A.3.3,0,0,0,216.67,295.5Z" style="fill:#f5f5f5"></path><path d="M214.5,295.5h1.57a.31.31,0,0,0,.3-.3v-1.65a.3.3,0,0,0-.3-.3H215a.29.29,0,0,0-.29.22l-.44,1.65A.3.3,0,0,0,214.5,295.5Z" style="fill:#f5f5f5"></path><path d="M212.34,295.5h1.57a.31.31,0,0,0,.3-.3v-1.65a.3.3,0,0,0-.3-.3h-1.13a.29.29,0,0,0-.28.22l-.45,1.65A.31.31,0,0,0,212.34,295.5Z" style="fill:#f5f5f5"></path><path d="M210.18,295.5h1.57a.3.3,0,0,0,.29-.3v-1.65a.29.29,0,0,0-.29-.3h-1.13a.31.31,0,0,0-.29.22l-.44,1.65A.31.31,0,0,0,210.18,295.5Z" style="fill:#f5f5f5"></path><path d="M208,295.5h1.56a.3.3,0,0,0,.3-.3v-1.65a.29.29,0,0,0-.3-.3h-1.12a.31.31,0,0,0-.29.22l-.44,1.65A.3.3,0,0,0,208,295.5Z" style="fill:#f5f5f5"></path><path d="M205.86,295.5h1.56a.3.3,0,0,0,.3-.3v-1.65a.29.29,0,0,0-.3-.3H206.3a.31.31,0,0,0-.29.22l-.44,1.65A.3.3,0,0,0,205.86,295.5Z" style="fill:#f5f5f5"></path><path d="M203.7,295.5h1.56a.3.3,0,0,0,.3-.3v-1.65a.29.29,0,0,0-.3-.3h-1.12a.3.3,0,0,0-.29.22l-.44,1.65A.3.3,0,0,0,203.7,295.5Z" style="fill:#f5f5f5"></path><path d="M201.54,295.5h1.56a.3.3,0,0,0,.3-.3v-1.65a.29.29,0,0,0-.3-.3H202a.29.29,0,0,0-.29.22l-.44,1.65A.3.3,0,0,0,201.54,295.5Z" style="fill:#f5f5f5"></path><rect x="199.96" y="294.37" width="34.97" height="2.6" transform="translate(434.89 591.35) rotate(180)" style="fill:#ebebeb"></rect><rect x="283.12" y="89.11" width="125.56" height="161.58" transform="translate(515.8 -176) rotate(90)" style="fill:#e0e0e0"></rect><rect x="267.35" y="109.36" width="157.1" height="121.08" transform="translate(691.8 339.8) rotate(180)" style="fill:#ebebeb"></rect><line x1="343.26" y1="131.23" x2="343.26" y2="148.12" style="fill:none;stroke:#e0e0e0;stroke-miterlimit:10"></line><polyline points="304.87 202.47 304.87 148.12 376.13 148.12 376.13 179.29" style="fill:none;stroke:#e0e0e0;stroke-miterlimit:10"></polyline><polyline points="357.69 195.89 357.69 179.29 396.87 179.29 396.87 196.47" style="fill:none;stroke:#e0e0e0;stroke-miterlimit:10"></polyline><rect x="325.24" y="125.03" width="36.04" height="12.41" style="fill:#f5f5f5"></rect><rect x="359.49" y="154.8" width="34.35" height="13.48" style="fill:#f5f5f5"></rect><rect x="345.9" y="188.94" width="23.59" height="13.9" style="fill:#f5f5f5"></rect><rect x="384.24" y="191.19" width="25.27" height="10.56" style="fill:#f5f5f5"></rect><rect x="288.29" y="157.65" width="39.03" height="18.01" style="fill:#f5f5f5"></rect><rect x="292.41" y="195.89" width="24.92" height="13.16" style="fill:#f5f5f5"></rect><rect x="339.46" y="144.75" width="7.61" height="7.61" transform="translate(205.59 -199.21) rotate(45)" style="fill:#f5f5f5"></rect><rect x="372.33" y="175.49" width="7.61" height="7.61" transform="translate(236.95 -213.45) rotate(45)" style="fill:#f5f5f5"></rect><path d="M156.11,360.9a2.39,2.39,0,0,0-1.91-3.43,5.12,5.12,0,0,0-1.62-5.58,1.18,1.18,0,0,0-.7-.31,1.4,1.4,0,0,0-.76.33l-4.46,3.21a2.68,2.68,0,0,0-.89.88c-.92,1.77,2.38,4,1,5.5-.38.42-1,.51-1.5.81-1.06.66-1.19,2.12-1.68,3.28s-2.23,2-2.89,1c.49-1.11-1-2.06-2.19-2.2s-2.45-.21-3.12-1.33c-1.7,1.49-5.51-2.67-5.42-4.34a3.28,3.28,0,0,0-2.66,2.73,19.35,19.35,0,0,0-.15,4.17c0,2.71-.92,5.37-.87,8.08,0,2.11.85,4.45,2.79,5.3a7.19,7.19,0,0,0,3,.4l22-.14a3.26,3.26,0,0,0,1.55-.26c1-.52,1.2-1.82,1.29-2.93q.6-7.17,1.18-14.34Z" style="fill:#e0e0e0"></path><path d="M157.4,337.66H123.28l.28,3.44.2,2.46.52,6.41.29,3.68.4,4.9.17,2.1,0,.63.2,2.46.27,3.39.17,2.1.18,2.13.2,2.47.15,1.87.17,2.1.07.91h31.32l.07-.91.17-2.09.15-1.89.2-2.47.18-2.12.17-2.1.27-3.39.2-2.46,0-.63.17-2.1.4-4.9.29-3.67.52-6.42.2-2.46.28-3.44Zm2,2.26h0l-.66-.66h.72Zm-.17,2.09-.06.83-3.06,3.06-3.5-3.51,3.13-3.13h.74Zm-.88,10.92-2.24,2.24-3.5-3.51,3.5-3.49,2.43,2.42Zm-32.47-2.34h0l2.42-2.42,3.5,3.49-3.5,3.51-2.23-2.24ZM155,347l-3.5,3.5L148,347l3.5-3.51Zm-5.5-7.77h4l-2,2Zm.86,12.4-3.49,3.51-3.51-3.51,3.51-3.49Zm-11.63,4.64,3.5-3.5,3.5,3.5-3.5,3.5Zm2.36,4.63-3.5,3.5-3.5-3.49,3.51-3.51Zm5.78-3.5,3.49,3.51-3.49,3.49-3.51-3.5Zm-4.64-6.9-3.5-3.5,3.5-3.51,3.5,3.51Zm-1.14,1.13-3.49,3.51-3.51-3.51,3.51-3.49ZM133,350.53l-3.49-3.5,3.49-3.51,3.51,3.51Zm0,2.27,3.51,3.5L133,359.8l-3.49-3.5Zm3.51,12.77-3.51,3.5-3.49-3.5,3.49-3.5Zm1.13,1.13,3.5,3.51-3.49,3.5-3.51-3.5Zm1.14-1.13,3.5-3.5,3.5,3.5-3.5,3.5Zm8.14,1.13,3.49,3.51-3.49,3.5-3.51-3.5Zm4.63,4.64,3.5,3.5-2.27,2.27h-2.47L148,374.84Zm-3.5-5.77,3.5-3.5,3.5,3.5-3.5,3.5Zm0-9.27,3.5-3.5,3.5,3.5-3.5,3.5Zm2.36-13.91-3.49,3.51-3.51-3.51,3.14-3.13h.73Zm-8.13-1.13-2-2h4Zm-1.14,1.13-3.49,3.51-3.51-3.51,3.14-3.13H138ZM135,339.26l-2,2-2-2Zm-6.27,0,3.13,3.13-3.5,3.51-3-3.06-.06-.83,2.74-2.75Zm-3,0-.65.65h0l0-.65Zm-.22,6.05,1.72,1.72-1.46,1.46Zm1,11.75-.14-1.66h0l.9.9-.76.76Zm.17,2.11,1.72-1.74,3.5,3.51-3.5,3.49L126.94,363Zm.52,6.47v-.15l.08.08-.07.07Zm.61,7.47-.44-5.37,1-1,3.5,3.51-3.5,3.49-.59-.59Zm.32,4-.07-.8.34-.34,1.14,1.14Zm1.41-2.27,3.49-3.5,3.51,3.5-2.27,2.27h-2.47Zm7,2.27,1.14-1.14,1.14,1.14Zm4.54,0-2.27-2.27,3.5-3.5,3.5,3.5-2.26,2.27Zm4.73,0L146.9,376l1.13,1.14Zm10.68,0H155l1.13-1.14.34.34Zm.32-4-.6.59-3.5-3.49,3.5-3.51,1,1Zm.62-7.63v.16l-.08-.07.09-.09Zm.2-2.46-1.42,1.41-3.5-3.49,3.5-3.51,1.74,1.74Zm.48-5.95-.77-.77.91-.9Zm1-11.77-.26,3.2L157.29,347,159,345.3Z" style="fill:#e6e6e6"></path><rect x="121.09" y="336.23" width="42.33" height="4.46" rx="1.64" transform="translate(284.52 676.91) rotate(-180)" style="fill:#f0f0f0"></rect><rect x="124.14" y="376.31" width="36.23" height="4.46" rx="1.64" style="fill:#f0f0f0"></rect><path d="M405.45,345.83l10.63-30.64s-14.74,10.93-14.64-1.19,6.71-2.71,9-7.18-6.54-4.43-3.44-11.22,11.92,3.64,13.47-2.37,4-9.08,10.46-8.54c0,0,3.47,7.92-.78,13.63s10.52,1.14,9,6.89-6.44,10.77-8.61,6.72-4.93,3.71-1.21,5.71-4.86,10.66-6.74,6.12a47.74,47.74,0,0,0-4.82-8.58L408,348Z" style="fill:#ebebeb"></path><path d="M394.5,346.1l-12-19.59s11.85,5.33,10-3-5.06-.86-7.33-3.61,3.86-4.05.69-8.28-7.7,4.32-9.68.39-4.17-5.66-8.53-4.32c0,0-1.21,6,2.6,9.31s-7.11,2.38-5.2,6.13,6.08,6.48,7,3.35,4,1.82,1.71,3.77,5,6.64,5.58,3.21a33.43,33.43,0,0,1,2-6.66L393.05,348Z" style="fill:#e6e6e6"></path><path d="M402.57,346.29l-5.49-31.57s12.64,13,14.47,1.18-6.12-3.71-7.65-8.44,7.08-3.28,5.14-10.39-12.2,1.65-12.76-4.46-2.49-9.49-8.84-10c0,0-4.64,7.16-1.4,13.41s-10.44-.57-9.89,5.28,4.56,11.52,7.32,7.92,4.22,4.4.28,5.76,3,11.16,5.59,7a46.62,46.62,0,0,1,6.07-7.6L399.75,348Z" style="fill:#f5f5f5"></path><path d="M409.37,381.78H390.53a2.5,2.5,0,0,1-2.49-2.34l-2-32.5a2.49,2.49,0,0,1,2.49-2.64h22.83a2.49,2.49,0,0,1,2.49,2.64l-2,32.5A2.49,2.49,0,0,1,409.37,381.78Z" style="fill:#ebebeb"></path><path d="M413.61,348H386a2.49,2.49,0,0,1-2.47-2.21h0A2.49,2.49,0,0,1,386,343h27.57a2.5,2.5,0,0,1,2.48,2.78h0A2.49,2.49,0,0,1,413.61,348Z" style="fill:#f5f5f5"></path><path d="M243.39,323.39h53a0,0,0,0,1,0,0v1.89a5,5,0,0,1-5,5h-43a5,5,0,0,1-5-5v-1.89A0,0,0,0,1,243.39,323.39Z" transform="translate(539.81 653.68) rotate(180)" style="fill:#e0e0e0"></path><path d="M294.69,369.53l-17-1.67V344H271v23.87l-17.06,1.68a3.31,3.31,0,0,0-3,3.29v2.55h46.76v-2.55A3.31,3.31,0,0,0,294.69,369.53Z" style="fill:#e0e0e0"></path><path d="M257.12,378.54a4.4,4.4,0,1,1-4.4-4.4A4.4,4.4,0,0,1,257.12,378.54Z" style="fill:#e0e0e0"></path><path d="M291.48,378.54a4.4,4.4,0,1,0,4.4-4.4A4.4,4.4,0,0,0,291.48,378.54Z" style="fill:#e0e0e0"></path><path d="M269.81,327.85h9.05a0,0,0,0,1,0,0V345a4.13,4.13,0,0,1-4.13,4.13h-.79a4.13,4.13,0,0,1-4.13-4.13V327.85A0,0,0,0,1,269.81,327.85Z" style="fill:#e6e6e6"></path><path d="M265.39,323.84a293.28,293.28,0,0,0,8.75-62.24,8.73,8.73,0,0,1,8.74-8.4h15.67a8.74,8.74,0,0,1,8.75,8.7c.06,14.28-.93,43.47-9,67.2L268.48,328A3.31,3.31,0,0,1,265.39,323.84Z" style="fill:#ebebeb"></path><path d="M269.61,327.51A308.68,308.68,0,0,0,279,262.62a8.06,8.06,0,0,1,8.07-7.75H301.5a8.06,8.06,0,0,1,8.07,8c.06,13.18-.86,42.73-8.29,64.62Z" style="fill:#e6e6e6"></path><path d="M275.81,306.69s-17.18-3.47-33.77-1.79,7.8,23.36,7.8,23.36h3.43s-12.93-13.75-12.21-17.17,33.27,1.09,33.27,1.09Z" style="fill:#e6e6e6"></path><path d="M301.28,327.51H273.14a308.64,308.64,0,0,0,9.39-64.89,8,8,0,0,1,8.06-7.75H301.5a8.07,8.07,0,0,1,8.08,8C309.63,276.06,308.71,305.62,301.28,327.51Z" style="fill:#e0e0e0"></path><path d="M243.23,326.84h56.9a1.72,1.72,0,0,1,1.72,1.72h0a1.73,1.73,0,0,1-1.72,1.73h-56.9a1.73,1.73,0,0,1-1.73-1.73h0A1.72,1.72,0,0,1,243.23,326.84Z" style="fill:#e0e0e0"></path></g><g id="freepik--Shadow--inject-40"><ellipse id="freepik--path--inject-40" cx="250" cy="416.24" rx="193.89" ry="11.32" style="fill:#f5f5f5"></ellipse></g><g id="freepik--Ux--inject-40"><path d="M274.06,94.25V410.37a4.62,4.62,0,0,1-4.69,4.62H110.25a4.14,4.14,0,0,1-4.19-4.24V93.87A3.73,3.73,0,0,1,109.65,90h37.78a2.94,2.94,0,0,1,2.69,1.88l1.73,4.26A2.94,2.94,0,0,0,154.54,98h71.13a2.91,2.91,0,0,0,2.69-1.83l1.73-4.28A3,3,0,0,1,232.78,90H270A4.22,4.22,0,0,1,274.06,94.25Z" style="fill:#3C9BC7"></path><path d="M274.06,94.25V410.37a4.62,4.62,0,0,1-4.69,4.62H110.25a4.14,4.14,0,0,1-4.19-4.24V93.87A3.73,3.73,0,0,1,109.65,90h37.78a2.94,2.94,0,0,1,2.69,1.88l1.73,4.26A2.94,2.94,0,0,0,154.54,98h71.13a2.91,2.91,0,0,0,2.69-1.83l1.73-4.28A3,3,0,0,1,232.78,90H270A4.22,4.22,0,0,1,274.06,94.25Z" style="fill:#fff;opacity:0.6000000000000001;isolation:isolate"></path><rect x="114.54" y="329.95" width="41.41" height="41.41" rx="3.38" style="fill:#fff"></rect><rect x="123.3" y="338.71" width="23.87" height="23.87" style="fill:#3C9BC7;opacity:0.5"></rect><path d="M123.3,338.71v23.87h23.88V338.71Zm11.17,11.94L124.4,360.72V340.58Zm-9.3-10.84h20.14l-10.07,10.06Zm10.07,11.61,10.07,10.07H125.17Zm.77-.77,10.07-10.07v20.14Z" style="fill:#fff;opacity:0.30000000000000004;isolation:isolate"></path><rect x="114.17" y="380" width="42.14" height="4.75" style="fill:#3C9BC7;opacity:0.75"></rect><path d="M115.9,381.26h-1.2v-.43h2.89v.43h-1.2v3.06h-.49Z" style="fill:#fff"></path><rect x="168.63" y="329.53" width="41.41" height="41.41" rx="3.38" style="fill:#fff"></rect><rect x="177.39" y="338.3" width="23.87" height="23.87" style="fill:#3C9BC7;opacity:0.5"></rect><path d="M177.39,338.3v23.87h23.88V338.3Zm11.17,11.94L178.49,360.3V340.17Zm-9.3-10.84H199.4l-10.07,10.06ZM189.33,351l10.07,10.07H179.26Zm.77-.77,10.07-10.07V360.3Z" style="fill:#fff;opacity:0.30000000000000004;isolation:isolate"></path><rect x="168.26" y="379.59" width="42.14" height="4.75" style="fill:#3C9BC7;opacity:0.75"></rect><path d="M170,380.85h-1.2v-.43h2.89v.43h-1.2v3H170Z" style="fill:#fff"></path><rect x="222.72" y="329.12" width="41.41" height="41.41" rx="3.38" style="fill:#fff"></rect><rect x="231.48" y="337.89" width="23.87" height="23.87" style="fill:#3C9BC7;opacity:0.5"></rect><path d="M231.48,337.89v23.87h23.87V337.89Zm11.16,11.93-10.06,10.07V339.76ZM233.35,339h20.14l-10.07,10.07Zm10.07,11.62,10.07,10.07H233.35Zm.77-.78,10.07-10.06v20.13Z" style="fill:#fff;opacity:0.30000000000000004;isolation:isolate"></path><rect x="222.35" y="379.18" width="42.14" height="4.75" style="fill:#3C9BC7;opacity:0.75"></rect><path d="M224.08,380.44h-1.2V380h2.89v.44h-1.2v3.05h-.49Z" style="fill:#fff"></path><rect x="114.17" y="119.48" width="151.78" height="72.98" rx="1.94" style="fill:#fff"></rect><circle cx="121.56" cy="154.09" r="3.36" style="fill:#3C9BC7;opacity:0.75"></circle><polygon points="119.9 154.09 122.5 155.85 122.5 152.32 119.9 154.09" style="fill:#fff"></polygon><circle cx="258.56" cy="154.09" r="3.36" style="fill:#3C9BC7;opacity:0.75"></circle><polygon points="260.22 154.09 257.62 152.32 257.62 155.85 260.22 154.09" style="fill:#fff"></polygon><rect x="139.36" y="137.14" width="84.69" height="8.44" style="fill:#3C9BC7;opacity:0.75"></rect><rect x="139.36" y="148.1" width="84.69" height="8.44" style="fill:#3C9BC7;opacity:0.75"></rect><rect x="139.36" y="159.9" width="69.36" height="8.44" style="fill:#3C9BC7;opacity:0.75"></rect><path d="M142.44,139.38h-2.13v-.77h5.14v.77h-2.13v5.44h-.88Z" style="fill:#fff"></path><path d="M176.25,188.4a1.52,1.52,0,1,1-1.52-1.52A1.52,1.52,0,0,1,176.25,188.4Z" style="fill:#3C9BC7;opacity:0.75"></path><path d="M183.91,188.4a1.52,1.52,0,1,1-1.51-1.52A1.52,1.52,0,0,1,183.91,188.4Z" style="fill:#3C9BC7;opacity:0.75"></path><path d="M191.58,188.4a1.52,1.52,0,1,1-1.52-1.52A1.52,1.52,0,0,1,191.58,188.4Z" style="fill:#3C9BC7;opacity:0.75"></path><path d="M199.24,188.4a1.52,1.52,0,1,1-1.51-1.52A1.52,1.52,0,0,1,199.24,188.4Z" style="fill:#3C9BC7;opacity:0.75"></path><path d="M206.91,188.4a1.52,1.52,0,1,1-1.52-1.52A1.52,1.52,0,0,1,206.91,188.4Z" style="fill:#3C9BC7;opacity:0.75"></path><rect x="114.17" y="202.77" width="151.78" height="11.86" style="fill:#fff"></rect><rect x="253.82" y="202.64" width="12.13" height="12.13" style="fill:#3C9BC7;opacity:0.75"></rect><rect x="114.17" y="223.8" width="139.78" height="46.06" rx="2.6" style="fill:#fff"></rect><rect x="120.4" y="230.19" width="43.72" height="33.29" style="fill:#3C9BC7;opacity:0.5"></rect><path d="M120.4,230.19v33.29h43.72V230.19Zm41.73,1-19.87,15-19.86-15Zm-40.73.5,20,15.14L121.4,262Zm1,30.79,19.86-15,19.87,15Zm20.69-15.65,20-15.14V262Z" style="fill:#fff;opacity:0.30000000000000004;isolation:isolate"></path><rect x="170.91" y="230.68" width="77.5" height="4.34" style="fill:#3C9BC7;opacity:0.75"></rect><rect x="170.91" y="238.31" width="77.5" height="4.34" style="fill:#3C9BC7;opacity:0.75"></rect><rect x="170.91" y="246.37" width="35.62" height="4.34" style="fill:#3C9BC7;opacity:0.75"></rect><path d="M172.49,231.84H171.4v-.4H174v.4h-1.1v2.79h-.45Z" style="fill:#fff"></path><rect x="114.17" y="273.8" width="139.78" height="46.06" rx="2.6" style="fill:#fff"></rect><rect x="120.4" y="280.19" width="43.72" height="33.29" style="fill:#3C9BC7;opacity:0.5"></rect><path d="M120.4,280.19v33.29h43.72V280.19Zm41.73,1-19.87,15-19.86-15Zm-40.73.5,20,15.14L121.4,312Zm1,30.79,19.86-15,19.87,15Zm20.69-15.65,20-15.14V312Z" style="fill:#fff;opacity:0.30000000000000004;isolation:isolate"></path><rect x="170.91" y="280.68" width="77.5" height="4.34" style="fill:#3C9BC7;opacity:0.75"></rect><rect x="170.91" y="288.31" width="77.5" height="4.34" style="fill:#3C9BC7;opacity:0.75"></rect><rect x="170.91" y="296.37" width="35.62" height="4.34" style="fill:#3C9BC7;opacity:0.75"></rect><path d="M172.49,281.84H171.4v-.4H174v.4h-1.1v2.79h-.45Z" style="fill:#fff"></path><rect x="259.09" y="223.85" width="5.4" height="96.02" style="fill:#fff"></rect><rect x="259.09" y="229.07" width="5.4" height="15.04" style="fill:#3C9BC7;opacity:0.75"></rect><path d="M274.06,94.25v15.49h-168V93.87A3.73,3.73,0,0,1,109.65,90h37.78a2.94,2.94,0,0,1,2.69,1.88l1.73,4.26A2.94,2.94,0,0,0,154.54,98h71.13a2.91,2.91,0,0,0,2.69-1.83l1.73-4.28A3,3,0,0,1,232.78,90H270A4.22,4.22,0,0,1,274.06,94.25Z" style="fill:#3C9BC7"></path><path d="M106.06,394h168v16.38a4.62,4.62,0,0,1-4.69,4.62H110.25a4.14,4.14,0,0,1-4.19-4.24Z" style="fill:#3C9BC7"></path></g><g id="freepik--Labels--inject-40"><rect x="67.1" y="91.63" width="30.46" height="14.83" style="fill:#3C9BC7"></rect><line x1="72.15" y1="95.67" x2="92.52" y2="95.67" style="fill:none;stroke:#fff;stroke-linecap:round;stroke-linejoin:round"></line><line x1="72.15" y1="99.04" x2="92.52" y2="99.04" style="fill:none;stroke:#fff;stroke-linecap:round;stroke-linejoin:round"></line><line x1="72.15" y1="102.41" x2="82.34" y2="102.41" style="fill:none;stroke:#fff;stroke-linecap:round;stroke-linejoin:round"></line><line x1="88.42" y1="105.85" x2="118.48" y2="131.92" style="fill:none;stroke:#3C9BC7;stroke-miterlimit:10"></line><circle cx="118.48" cy="131.92" r="1.82" style="fill:#3C9BC7"></circle><rect x="64.1" y="275.94" width="30.46" height="14.83" style="fill:#3C9BC7"></rect><line x1="69.15" y1="279.98" x2="89.52" y2="279.98" style="fill:none;stroke:#fff;stroke-linecap:round;stroke-linejoin:round"></line><line x1="69.15" y1="283.35" x2="89.52" y2="283.35" style="fill:none;stroke:#fff;stroke-linecap:round;stroke-linejoin:round"></line><line x1="69.15" y1="286.72" x2="79.34" y2="286.72" style="fill:none;stroke:#fff;stroke-linecap:round;stroke-linejoin:round"></line><circle cx="115.48" cy="283.35" r="1.82" style="fill:#3C9BC7"></circle><line x1="115.48" y1="283.35" x2="92.74" y2="283.35" style="fill:none;stroke:#3C9BC7;stroke-miterlimit:10"></line><rect x="279.27" y="161.83" width="30.46" height="14.83" style="fill:#3C9BC7"></rect><line x1="284.31" y1="165.87" x2="304.69" y2="165.87" style="fill:none;stroke:#fff;stroke-linecap:round;stroke-linejoin:round"></line><line x1="284.31" y1="169.24" x2="304.69" y2="169.24" style="fill:none;stroke:#fff;stroke-linecap:round;stroke-linejoin:round"></line><line x1="284.31" y1="172.61" x2="294.5" y2="172.61" style="fill:none;stroke:#fff;stroke-linecap:round;stroke-linejoin:round"></line><circle cx="244.93" cy="206.12" r="1.82" style="fill:#3C9BC7"></circle><line x1="244.93" y1="206.12" x2="288.86" y2="173.24" style="fill:none;stroke:#3C9BC7;stroke-miterlimit:10"></line><rect x="282.25" y="358.75" width="30.46" height="14.83" style="fill:#3C9BC7"></rect><line x1="287.3" y1="362.8" x2="307.67" y2="362.8" style="fill:none;stroke:#fff;stroke-linecap:round;stroke-linejoin:round"></line><line x1="287.3" y1="366.17" x2="307.67" y2="366.17" style="fill:none;stroke:#fff;stroke-linecap:round;stroke-linejoin:round"></line><line x1="287.3" y1="369.54" x2="297.49" y2="369.54" style="fill:none;stroke:#fff;stroke-linecap:round;stroke-linejoin:round"></line><path d="M249.73,366.17a1.82,1.82,0,1,1-1.81-1.82A1.81,1.81,0,0,1,249.73,366.17Z" style="fill:#3C9BC7"></path><line x1="247.92" y1="366.17" x2="284.5" y2="366.17" style="fill:none;stroke:#3C9BC7;stroke-miterlimit:10"></line></g></svg>